<?xml version="1.0" encoding="UTF-8" standalone="no"?>
<svg width="148px" height="78px" viewBox="0 0 148 78" version="1.1" xmlns="http://www.w3.org/2000/svg" xmlns:xlink="http://www.w3.org/1999/xlink">
    <!-- Generator: Sketch 3.6 (26304) - http://www.bohemiancoding.com/sketch -->
    <title>cup</title>
    <desc>Created with Sketch.</desc>
    <defs></defs>
    <g id="Page-1" stroke="none" stroke-width="1" fill="none" fill-rule="evenodd">
        <g id="cup">
            <g id="Group" transform="translate(2.000000, -35.000000)">
                <path d="M137.666165,37.3567568 C138.857092,41.7741045 139.486869,46.3782548 139.486869,51.1097792 C139.486869,84.3882055 108.333123,111.3657 69.9030303,111.3657 C31.4729375,111.3657 0.319191919,84.3882055 0.319191919,51.1097792 C0.319191919,46.3782548 0.948969033,41.7741045 2.13989517,37.3567568 L137.666165,37.3567568 Z" id="Oval-1" fill="#FF0000"></path>
                <ellipse id="Oval-2" fill="#FFFFFF" cx="37.9838384" cy="67.0162162" rx="4.78787879" ry="4.78378378"></ellipse>
                <ellipse id="Oval-2" fill="#FFFFFF" cx="101.822222" cy="67.0162162" rx="4.78787879" ry="4.78378378"></ellipse>
                <path d="M59.1100278,82.6432432 C59.1100278,82.6432432 59.3516452,90.9127111 69.444978,90.9127111 C79.5383107,90.9127111 79.5383106,82.9752709 79.5383106,82.9752709" id="Path-1" stroke="#FFFFFF" stroke-width="4"></path>
                <path d="M128.953535,96.0378378 C137.415207,96.0378378 144.274747,89.1841644 144.274747,80.7297297 C144.274747,72.2752951 137.415207,65.4216216 128.953535,65.4216216 C120.491864,65.4216216 113.632323,72.2752951 113.632323,80.7297297 C113.632323,89.1841644 120.491864,96.0378378 128.953535,96.0378378 Z M128.953535,88.3837838 C133.184371,88.3837838 136.614141,84.9569471 136.614141,80.7297297 C136.614141,76.5025124 133.184371,73.0756757 128.953535,73.0756757 C124.722699,73.0756757 121.292929,76.5025124 121.292929,80.7297297 C121.292929,84.9569471 124.722699,88.3837838 128.953535,88.3837838 Z" id="Combined-Shape" fill="#FF0000"></path>
            </g>
        </g>
    </g>
</svg>