<?xml version="1.0" encoding="UTF-8" standalone="no"?>
<svg width="328px" height="106px" viewBox="0 0 328 106" version="1.1" xmlns="http://www.w3.org/2000/svg" xmlns:xlink="http://www.w3.org/1999/xlink">
    <!-- Generator: Sketch 3.6.1 (26313) - http://www.bohemiancoding.com/sketch -->
    <title>logo</title>
    <desc>Created with Sketch.</desc>
    <defs></defs>
    <g id="Page-1" stroke="none" stroke-width="1" fill="none" fill-rule="evenodd">
        <g id="logo">
            <g id="Logo" transform="translate(8.000000, -14.000000)">
                <g id="Group">
                    <path d="M137.666165,37.3567568 C138.857092,41.7741045 139.486869,46.3782548 139.486869,51.1097792 C139.486869,84.3882055 108.333123,111.3657 69.9030303,111.3657 C31.4729375,111.3657 0.319191919,84.3882055 0.319191919,51.1097792 C0.319191919,46.3782548 0.948969033,41.7741045 2.13989517,37.3567568 L137.666165,37.3567568 Z" id="Oval-1" fill="#FF0000"></path>
                    <ellipse id="Oval-2" fill="#FFFFFF" cx="37.9838384" cy="67.0162162" rx="4.78787879" ry="4.78378378"></ellipse>
                    <ellipse id="Oval-2" fill="#FFFFFF" cx="101.822222" cy="67.0162162" rx="4.78787879" ry="4.78378378"></ellipse>
                    <path d="M59.1100278,82.6432432 C59.1100278,82.6432432 59.3516452,90.9127111 69.444978,90.9127111 C79.5383107,90.9127111 79.5383106,82.9752709 79.5383106,82.9752709" id="Path-1" stroke="#FFFFFF" stroke-width="4"></path>
                    <path d="M128.953535,96.0378378 C137.415207,96.0378378 144.274747,89.1841644 144.274747,80.7297297 C144.274747,72.2752951 137.415207,65.4216216 128.953535,65.4216216 C120.491864,65.4216216 113.632323,72.2752951 113.632323,80.7297297 C113.632323,89.1841644 120.491864,96.0378378 128.953535,96.0378378 Z M128.953535,88.3837838 C133.184371,88.3837838 136.614141,84.9569471 136.614141,80.7297297 C136.614141,76.5025124 133.184371,73.0756757 128.953535,73.0756757 C124.722699,73.0756757 121.292929,76.5025124 121.292929,80.7297297 C121.292929,84.9569471 124.722699,88.3837838 128.953535,88.3837838 Z" id="Combined-Shape" fill="#FF0000"></path>
                </g>
                <g id="Group-2" transform="translate(178.747475, 19.497297)">
                    <path d="M41.1368785,9.52028026 C37.4506977,10.5626467 33.1385616,11.3965399 28.409122,11.8829776 L28.409122,9.65926246 C28.409122,5.07285007 28.4786725,3.47455484 28.8264254,0.972875355 L16.7941747,0.972875355 C17.2114782,3.54404594 17.2810288,5.14234116 17.2810288,10.3541734 L17.2810288,12.5778885 C16.8637253,12.5778885 16.8637253,12.5778885 15.8900171,12.6473796 L13.247095,12.6473796 C8.79585771,12.6473796 5.94428383,12.4389063 3.71866519,12.0219597 L3.85776635,22.9320619 C4.4837216,22.8625709 5.10967684,22.8625709 5.31832858,22.8625709 L12.0647351,23.001553 L17.3505793,22.8625709 L17.3505793,31.0625203 C12.6906903,33.0777621 9.76956586,34.8150395 6.98754256,37.2472279 C2.81450762,40.930256 0.519338397,45.0302307 0.519338397,48.78275 C0.519338397,52.1183226 2.18855237,55.3844042 5.04012625,57.8165926 C9.00450945,61.1521652 14.916309,63.3063892 20.0630521,63.3063892 C23.1928283,63.3063892 25.8357504,62.1945317 27.1572115,60.2487809 C28.2004702,58.7894679 28.4786725,57.2606638 28.4786725,53.0217069 L28.4786725,51.2149384 L28.409122,38.9150142 C32.3735052,37.8726478 35.225079,37.5251923 38.6330576,37.5251923 C42.3192384,37.5251923 45.0317112,38.1506122 46.9095769,39.3319608 C49.0656449,40.7912738 50.3175554,43.08448 50.3175554,45.4471773 C50.3175554,48.9912233 48.3005885,51.4234116 45.3099135,51.4234116 C43.9189018,51.4234116 42.7365419,50.5895185 42.2496879,49.3386787 C41.8323844,48.2963123 41.6932832,47.1149636 41.6932832,44.9607396 C41.6932832,43.5014266 41.7628338,42.7370245 41.8323844,41.2777115 C38.0071023,43.3624444 36.3378883,44.0573554 31.2606958,45.5166684 L31.2606958,47.2539458 C31.2606958,57.2606638 36.2683378,63.0284248 44.89261,63.0284248 C54.7687927,63.0284248 62.210705,55.6623686 62.210705,45.8641239 C62.210705,41.0692382 60.541491,36.6912991 57.4812654,33.5641998 C53.4473316,29.394734 47.048678,27.24051 38.4939564,27.24051 C34.8077755,27.24051 32.3735052,27.5184743 28.3395714,28.4218586 L28.3395714,22.3066421 C31.7475499,21.9591866 36.1292366,21.4032578 38.8417093,20.9168201 C40.232721,20.6388558 40.4413727,20.6388558 41.4846314,20.4998736 L41.1368785,9.52028026 Z M17.3505793,49.2691876 C17.3505793,51.5623938 17.1419276,52.0488315 16.23777,52.0488315 C15.403163,52.0488315 14.081702,51.5623938 13.1079938,50.936974 C12.0647351,50.242063 11.577881,49.547152 11.577881,48.7132589 C11.577881,46.7675082 14.081702,44.0573554 17.3505793,42.5285513 L17.3505793,49.2691876 Z M65.4100318,20.082927 C61.9325027,14.384657 57.6203666,9.52028026 51.7085671,4.72539458 L42.5278902,10.9101022 C48.717892,16.3304078 52.6822752,21.0558023 56.2293549,27.24051 L65.4100318,20.082927 Z M77.6509343,45.4471773 C80.0852047,45.1692129 82.3108233,45.0302307 85.9970042,45.0302307 L96.4991422,45.0302307 L96.4991422,57.2606638 C96.4991422,60.0403076 96.2904904,63.0284248 96.0122881,65.321631 L107.418584,65.321631 C107.140381,63.0284248 107.00128,60.2487809 107.00128,57.2606638 L107.00128,45.0302307 L118.268474,45.0302307 C122.024206,45.0302307 124.249825,45.1692129 126.823196,45.4471773 L126.823196,38.5675587 C128.283758,39.0539964 129.048815,39.3319608 131.065782,39.9573807 C132.387243,35.5099505 133.360951,33.2167443 135.447468,29.6032072 C125.223533,27.4489832 117.225216,24.1134106 110.965663,19.5964893 L118.685778,19.5964893 C118.546677,18.4846318 118.477126,17.7202297 118.477126,16.6083721 L118.477126,13.5507639 L125.571286,13.5507639 C129.187916,13.5507639 131.413535,13.6897461 133.986906,13.9677105 L133.986906,3.75251923 C131.830838,4.03048362 129.257466,4.16946581 125.571286,4.16946581 L118.477126,4.16946581 L118.477126,3.33557265 C118.477126,2.0847329 118.546677,1.18134865 118.685778,0.0694910968 L107.905438,0.0694910968 C108.114089,1.11185755 108.18364,2.2237151 108.18364,3.33557265 L108.18364,4.16946581 L95.3863328,4.16946581 L95.3863328,3.26608155 C95.3863328,2.01524181 95.4558834,1.04236645 95.5949846,0 L84.8146443,0 C85.0232961,1.11185755 85.0928466,2.0847329 85.0928466,3.26608155 L85.0928466,4.16946581 L78.8332942,4.16946581 C75.2166639,4.16946581 72.6432924,4.03048362 70.4176737,3.75251923 L70.4176737,13.9677105 C72.9214947,13.6897461 75.1471133,13.5507639 78.8332942,13.5507639 L85.0928466,13.5507639 L85.0928466,16.6778632 C85.0928466,17.5812475 85.0232961,18.6236139 84.8146443,19.5269982 L92.6043095,19.5269982 C86.0665548,24.3218839 77.9986872,27.9354209 68.8875609,29.9506627 C70.9045278,33.0777621 71.9477866,35.5099505 73.3387982,40.0268718 C75.3557651,39.3319608 76.1208215,39.1234875 77.6509343,38.5675587 L77.6509343,45.4471773 Z M84.1886891,35.857406 C88.9876793,33.703182 91.8392531,31.9659045 96.1513892,28.7693141 C96.360041,30.2981182 96.4991422,31.8964134 96.4991422,34.2591107 L96.4991422,35.857406 L84.1886891,35.857406 Z M107.00128,35.857406 L107.00128,34.2591107 C107.00128,31.6879401 107.070831,30.2286271 107.349033,28.6303319 C111.313416,31.6184491 114.930046,33.6336909 119.868138,35.857406 L107.00128,35.857406 Z M95.3863328,17.0948098 L95.3863328,13.5507639 L108.18364,13.5507639 L108.18364,17.1643009 C107.696786,16.7473543 107.557685,16.6083721 107.140381,16.1219345 L96.2904904,16.1219345 L95.3863328,17.0948098 Z M96.4991422,28.4913497 C98.5856596,26.8930545 99.4202666,26.1286524 101.715436,23.9049373 C104.080156,26.1286524 105.053864,26.9625456 107.140381,28.4913497 L96.4991422,28.4913497 Z M85.0928466,45.238704 C83.6322844,47.2539458 82.2412728,48.6437678 79.041946,50.936974 C76.3294732,53.0217069 74.5211581,53.9945822 69.9308197,55.9403329 C73.0605959,58.5809946 74.9384616,60.7352186 77.1640802,64.2792646 C84.3973408,60.3877631 89.7527357,56.009824 94.2039729,50.3810452 L85.0928466,45.238704 Z M109.574652,50.5895185 C111.869821,53.3691624 113.608585,55.0369487 116.877463,57.6081193 C120.14634,60.2487809 122.719712,61.8470762 127.796904,64.3487557 C130.300725,60.1792898 131.691737,58.3725213 134.334659,55.5928775 C126.405893,52.7437425 122.232858,50.1030808 118.407576,45.3776862 L109.574652,50.5895185 Z" id="お茶" fill="#333333"></path>
                    <path d="M1.55687032,86.2834595 C1.55687032,85.2288956 1.72695871,84.2891573 2.0671406,83.4642162 C2.40732248,82.6392752 2.86230892,81.946165 3.43211357,81.3848649 C4.00191822,80.8235648 4.66101073,80.3940916 5.40941087,80.0964324 C6.157811,79.7987733 6.93171317,79.6499459 7.7311406,79.6499459 C8.53056802,79.6499459 9.30021798,79.7987733 10.0401136,80.0964324 C10.7800092,80.3940916 11.4348495,80.8235648 12.0046541,81.3848649 C12.5744588,81.946165 13.0294452,82.6392752 13.3696271,83.4642162 C13.709809,84.2891573 13.8798974,85.2288956 13.8798974,86.2834595 C13.8798974,87.3380233 13.709809,88.2777616 13.3696271,89.1027027 C13.0294452,89.9276438 12.5744588,90.620754 12.0046541,91.1820541 C11.4348495,91.7433542 10.7800092,92.1728273 10.0401136,92.4704865 C9.30021798,92.7681456 8.53056802,92.916973 7.7311406,92.916973 C6.93171317,92.916973 6.157811,92.7681456 5.40941087,92.4704865 C4.66101073,92.1728273 4.00191822,91.7433542 3.43211357,91.1820541 C2.86230892,90.620754 2.40732248,89.9276438 2.0671406,89.1027027 C1.72695871,88.2777616 1.55687032,87.3380233 1.55687032,86.2834595 L1.55687032,86.2834595 Z M5.40941087,86.2834595 C5.40941087,87.3890506 5.6007603,88.2650058 5.98346492,88.9113514 C6.36616954,89.5576969 6.94872227,89.8808649 7.7311406,89.8808649 C8.49654983,89.8808649 9.07485035,89.5576969 9.46605951,88.9113514 C9.85726868,88.2650058 10.0528703,87.3890506 10.0528703,86.2834595 C10.0528703,85.1778683 9.85726868,84.3019131 9.46605951,83.6555676 C9.07485035,83.009222 8.49654983,82.6860541 7.7311406,82.6860541 C6.94872227,82.6860541 6.36616954,83.009222 5.98346492,83.6555676 C5.6007603,84.3019131 5.40941087,85.1778683 5.40941087,86.2834595 L5.40941087,86.2834595 Z M21.1867082,89.4726486 C20.7104535,89.4726486 20.2682237,89.3833522 19.8600055,89.2047568 C19.4517872,89.0261613 19.0946016,88.7752809 18.7884379,88.4521081 C18.4822742,88.1289353 18.2441505,87.7547409 18.0740595,87.3295135 C17.9039686,86.9042862 17.8189244,86.4365431 17.8189244,85.9262703 C17.8189244,85.4159974 17.9039686,84.9440022 18.0740595,84.5102703 C18.2441505,84.0765384 18.4822742,83.7023439 18.7884379,83.3876757 C19.0946016,83.0730074 19.4517872,82.8263793 19.8600055,82.6477838 C20.2682237,82.4691883 20.7104535,82.3798919 21.1867082,82.3798919 C21.6629628,82.3798919 22.1094448,82.4691883 22.5261676,82.6477838 C22.9428904,82.8263793 23.3043283,83.0730074 23.6104919,83.3876757 C23.9166556,83.7023439 24.1547794,84.0765384 24.3248703,84.5102703 C24.4949613,84.9440022 24.5800055,85.4159974 24.5800055,85.9262703 C24.5800055,86.4365431 24.4949613,86.9042862 24.3248703,87.3295135 C24.1547794,87.7547409 23.9166556,88.1289353 23.6104919,88.4521081 C23.3043283,88.7752809 22.9428904,89.0261613 22.5261676,89.2047568 C22.1094448,89.3833522 21.6629628,89.4726486 21.1867082,89.4726486 L21.1867082,89.4726486 Z M28.5190325,86.2834595 C28.5190325,85.2288956 28.6976253,84.2891573 29.0548163,83.4642162 C29.4120072,82.6392752 29.8925069,81.946165 30.4963298,81.3848649 C31.1001526,80.8235648 31.8017672,80.3940916 32.6011946,80.0964324 C33.4006221,79.7987733 34.2340552,79.6499459 35.101519,79.6499459 C35.8839373,79.6499459 36.5898041,79.7817644 37.2191406,80.0454054 C37.8484771,80.3090464 38.3757511,80.6619798 38.8009784,81.1042162 L37.091573,83.4259459 C36.4962547,82.9326822 35.9094498,82.6860541 35.3311406,82.6860541 C34.4126495,82.6860541 33.6897739,83.009222 33.1624919,83.6555676 C32.63521,84.3019131 32.371573,85.1778683 32.371573,86.2834595 C32.371573,87.3890506 32.6394622,88.2650058 33.1752487,88.9113514 C33.7110352,89.5576969 34.3871365,89.8808649 35.203573,89.8808649 C35.6628186,89.8808649 36.0795351,89.7873163 36.4537352,89.6002162 C36.8279353,89.4131162 37.168112,89.2005057 37.4742757,88.9623784 L38.979573,91.3351351 C38.3672456,91.8794261 37.6868921,92.2791339 36.9384919,92.5342703 C36.1900918,92.7894067 35.4672162,92.916973 34.7698433,92.916973 C33.8853704,92.916973 33.0646939,92.7681456 32.3077892,92.4704865 C31.5508846,92.1728273 30.8917921,91.7433542 30.3304919,91.1820541 C29.7691918,90.620754 29.326962,89.9276438 29.0037892,89.1027027 C28.6806165,88.2777616 28.5190325,87.3380233 28.5190325,86.2834595 L28.5190325,86.2834595 Z M43.1737352,74.7258378 L46.9242217,74.7258378 L46.9242217,79.1141622 L46.7456271,81.3848649 C47.2218817,80.9596375 47.774669,80.564182 48.4040055,80.1984865 C49.0333419,79.832791 49.7817309,79.6499459 50.6491946,79.6499459 C52.0269313,79.6499459 53.0262006,80.1006802 53.6470325,81.0021622 C54.2678644,81.9036441 54.5782757,83.1537938 54.5782757,84.7526486 L54.5782757,92.6108108 L50.8277892,92.6108108 L50.8277892,85.2374054 C50.8277892,84.3189143 50.7044752,83.6895873 50.4578433,83.3494054 C50.2112114,83.0092235 49.8157559,82.8391351 49.2714649,82.8391351 C48.7952103,82.8391351 48.3869982,82.9454404 48.0468163,83.1580541 C47.7066344,83.3706677 47.3324399,83.6725746 46.9242217,84.0637838 L46.9242217,92.6108108 L43.1737352,92.6108108 L43.1737352,74.7258378 Z M59.2827082,89.0899459 C59.2827082,87.7632366 59.8439998,86.7256974 60.9666001,85.9772973 C62.0892003,85.2288972 63.9006416,84.7271364 66.4009784,84.472 C66.3669602,83.9106999 66.1968719,83.4642179 65.8907082,83.1325405 C65.5845445,82.8008632 65.0912881,82.635027 64.4109244,82.635027 C63.8666334,82.635027 63.3223505,82.7370801 62.7780595,82.9411892 C62.2337685,83.1452983 61.655468,83.4259442 61.0431406,83.7831351 L59.7164379,81.3083243 C60.5328744,80.8150606 61.3875686,80.4153529 62.280546,80.1091892 C63.1735234,79.8030255 64.1217662,79.6499459 65.1253028,79.6499459 C66.7581758,79.6499459 68.0040732,80.1134368 68.8630325,81.0404324 C69.7219917,81.9674281 70.1514649,83.4089272 70.1514649,85.364973 L70.1514649,92.6108108 L67.0898433,92.6108108 L66.8091946,91.3096216 L66.7326541,91.3096216 C66.1883631,91.7858763 65.6143148,92.1728273 65.0104919,92.4704865 C64.4066691,92.7681456 63.7475766,92.916973 63.0331946,92.916973 C62.4548855,92.916973 61.9361159,92.8191721 61.4768703,92.6235676 C61.0176248,92.427963 60.6264215,92.1558216 60.3032487,91.8071351 C59.9800759,91.4584487 59.7291955,91.0544888 59.5506001,90.5952432 C59.3720046,90.1359977 59.2827082,89.634237 59.2827082,89.0899459 L59.2827082,89.0899459 Z M62.8546001,88.8092973 C62.8546001,89.2175156 62.9864186,89.5194224 63.2500595,89.715027 C63.5137005,89.9106316 63.8666339,90.0084324 64.3088703,90.0084324 C64.7511068,90.0084324 65.1253012,89.9148838 65.4314649,89.7277838 C65.7376286,89.5406837 66.0607966,89.2770467 66.4009784,88.9368649 L66.4009784,86.7171892 C65.05726,86.9042892 64.1302783,87.1764306 63.6200055,87.5336216 C63.1097326,87.8908126 62.8546001,88.3160336 62.8546001,88.8092973 L62.8546001,88.8092973 Z" id="o•cha" fill="#BDBDBD"></path>
                </g>
            </g>
        </g>
    </g>
</svg>